<svg role="img" viewBox="0 0 24 24" xmlns="http://www.w3.org/2000/svg"><title>Bluesky</title><path d="M12 10.8C10.913 8.686 7.954 4.747 5.205 2.805 2.57.94 1.561 1.246.9 1.542.134 1.884 0 3.042 0 3.722c0 .678.373 5.562.615 6.377.803 2.73 3.75 3.652 6.46 3.353-4.616.684-5.824 2.943-3.273 5.2 4.846 4.313 6.964-1.444 7.51-3.464.1-.36.147-.527.172-.385.025-.142.072.025.172.385.546 2.02 2.664 7.777 7.51 3.464 2.55-2.257 1.343-4.516-3.273-5.2 2.71.299 5.657-.623 6.46-3.353.242-.815.615-5.699.615-6.377 0-.68-.134-1.838-.9-2.18-.661-.296-1.67-.602-4.305 1.263C16.046 4.747 13.087 8.686 12 10.8Z"/></svg>
